<svg width="24" height="24" viewBox="0 0 24 24" fill="none" xmlns="http://www.w3.org/2000/svg">
<path d="M13.3984 19.0938L7.32031 13.1484C7.10938 12.9375 7 12.7031 7 12.4297C7 12.1562 7.10938 11.9062 7.32812 11.7031L13.4062 5.76562C13.5781 5.59375 13.7969 5.5 14.0469 5.5C14.5703 5.5 14.9766 5.90625 14.9766 6.42188C14.9766 6.67188 14.875 6.91406 14.6953 7.09375L9.22656 12.4219L14.6953 17.7656C14.875 17.9453 14.9766 18.1797 14.9766 18.4375C14.9766 18.9531 14.5703 19.3594 14.0469 19.3594C13.7969 19.3594 13.5781 19.2656 13.3984 19.0938Z" fill=""/>
</svg>
